<?xml version="1.0" ?><svg style="enable-background:new 0 0 512 512;" version="1.1" viewBox="0 0 512 512" xml:space="preserve" xmlns="http://www.w3.org/2000/svg" xmlns:xlink="http://www.w3.org/1999/xlink"><style type="text/css">
	.st0{fill-rule:evenodd;clip-rule:evenodd;}
</style><g id="LinkedIn"/><g id="Twitter"/><g id="Youtube_2"/><g id="Tumblr"/><g id="Facebook"/><g id="Instagram"/><g id="Youtube"/><g id="Whatsapp"/><g id="Reddit"/><g id="Snapachat"/><g id="Pinterest"/><g id="Google_x2B_"/><g id="GitHub"><g><path d="M233.9,233.5c0.5,0.1,0.8,0.5,0.7,0.9c-0.1,0.4-0.6,0.5-1.1,0.4c-0.5-0.2-0.8-0.6-0.7-0.9    C232.9,233.5,233.4,233.4,233.9,233.5z"/><path d="M237.3,234c0.5,0,0.9,0.3,0.9,0.6c0,0.4-0.4,0.7-0.9,0.7c-0.5,0-0.9-0.3-0.9-0.6C236.3,234.3,236.7,234.1,237.3,234z"/><path d="M241.5,234.1c0.1,0.3-0.3,0.7-0.8,0.8c-0.5,0.1-1-0.1-1-0.5c-0.1-0.4,0.3-0.7,0.8-0.8C241,233.5,241.5,233.8,241.5,234.1z    "/><path d="M299.8,207c0,19.3-12.5,35.8-29.9,41.5c-2.2,0.4-3-0.9-3-2.1c0-1.5,0-6.2,0-12c0-4.1-1.4-6.8-3-8.1    c9.8-1.1,20-4.8,20-21.6c0-4.8-1.7-8.7-4.5-11.8c0.5-1.1,2-5.6-0.4-11.6c0,0-3.7-1.2-12,4.5c-3.5-1-7.3-1.5-11-1.5    c-3.7,0-7.5,0.5-11,1.5c-8.4-5.7-12.1-4.5-12.1-4.5c-2.4,6-0.9,10.5-0.4,11.6c-2.8,3.1-4.5,7-4.5,11.8c0,16.8,10.2,20.5,19.9,21.6    c-1.3,1.1-2.4,3-2.8,5.9c-2.5,1.1-8.8,3-12.8-3.6c0,0-2.3-4.2-6.7-4.5c0,0-3.3,0-1.4,1.8c0-0.1,0-0.2,0-0.3    c0.1-0.2,0.4-0.3,0.8-0.1c0.3,0.2,0.5,0.4,0.4,0.7c-0.1,0.2-0.4,0.3-0.6,0.2c0.2,0.2,0.4,0.3,0.6,0.5c0,0,0.3,0.1,0.7,0.4    c0-0.1,0-0.1,0.1-0.2c0.2-0.2,0.6-0.1,0.9,0.2c0.3,0.3,0.3,0.7,0.1,0.9c0,0,0,0,0,0c0.3,0.3,0.6,0.6,0.9,1    c0.3-0.1,0.6,0.1,0.9,0.4c0.2,0.4,0.3,0.8,0.1,1v0c0.3,0.5,0.5,1,0.8,1.5c0-0.1,0.1-0.2,0.1-0.3c0.3-0.3,0.8-0.2,1.1,0.2    c0.4,0.3,0.5,0.9,0.2,1.1c-0.2,0.3-0.8,0.2-1.1-0.2c0,0.1,0.1,0.2,0.1,0.3c0,0,2.6,7.8,14.8,5.2c0,3.7,0.1,7.1,0.1,8.2    c0,1.2-0.8,2.5-3,2.1c-17.4-5.8-29.9-22.2-29.9-41.5c0-24.2,19.6-43.8,43.8-43.8S299.8,182.8,299.8,207z"/><path d="M256,127.2c-43.8,0-79.2,35.5-79.2,79.2s35.5,79.2,79.2,79.2c43.7,0,79.2-35.5,79.2-79.2S299.7,127.2,256,127.2z     M256,282.3c-41.8,0-75.9-34-75.9-75.9c0-41.8,34.1-75.9,75.9-75.9s75.9,34.1,75.9,75.9C331.9,248.3,297.8,282.3,256,282.3z"/><path d="M256,123.9c-45.5,0-82.5,37-82.5,82.5c0,45.5,37,82.5,82.5,82.5s82.5-37,82.5-82.5C338.5,160.9,301.5,123.9,256,123.9z     M256,282.3c-41.8,0-75.9-34-75.9-75.9c0-41.8,34.1-75.9,75.9-75.9s75.9,34.1,75.9,75.9C331.9,248.3,297.8,282.3,256,282.3z"/><path d="M256,491.9c-1.8,0-3.3-1.5-3.3-3.3V483c0-1.8,1.5-3.3,3.3-3.3c1.8,0,3.3,1.5,3.3,3.3v5.6    C259.3,490.4,257.8,491.9,256,491.9z"/><path d="M256,466.4c-1.8,0-3.3-1.5-3.3-3.3v-20.3c0-1.8,1.5-3.3,3.3-3.3c1.8,0,3.3,1.5,3.3,3.3v20.3    C259.3,465,257.8,466.4,256,466.4z"/><path d="M256,419.8c-1.8,0-3.3-1.5-3.3-3.3V346c0-1.8,1.5-3.3,3.3-3.3c1.8,0,3.3,1.5,3.3,3.3v70.4    C259.3,418.3,257.8,419.8,256,419.8z"/><path d="M256,332.5c-1.8,0-3.3-1.5-3.3-3.3v-8.8c0-1.8,1.5-3.3,3.3-3.3c1.8,0,3.3,1.5,3.3,3.3v8.8    C259.3,331,257.8,332.5,256,332.5z"/><path d="M296.4,426.7c-1.8,0-3.3-1.5-3.3-3.3V403c0-1.8,1.5-3.3,3.3-3.3c1.8,0,3.3,1.5,3.3,3.3v20.3    C299.7,425.2,298.2,426.7,296.4,426.7z"/><path d="M296.4,380c-1.8,0-3.3-1.5-3.3-3.3v-43.9c0-1.8,1.5-3.3,3.3-3.3c1.8,0,3.3,1.5,3.3,3.3v43.9    C299.7,378.5,298.2,380,296.4,380z"/><path d="M296.4,319.2c-1.8,0-3.3-1.5-3.3-3.3V307c0-1.8,1.5-3.3,3.3-3.3c1.8,0,3.3,1.5,3.3,3.3v8.8    C299.7,317.7,298.2,319.2,296.4,319.2z"/><path d="M296.4,448.4c-1.8,0-3.3-1.5-3.3-3.3v-1.9c0-1.8,1.5-3.3,3.3-3.3c1.8,0,3.3,1.5,3.3,3.3v1.9    C299.7,446.9,298.2,448.4,296.4,448.4z"/><path d="M215.6,380.8c-1.8,0-3.3-1.5-3.3-3.3V307c0-1.8,1.5-3.3,3.3-3.3c1.8,0,3.3,1.5,3.3,3.3v70.4    C218.9,379.3,217.4,380.8,215.6,380.8z"/><path d="M215.6,406.5c-1.8,0-3.3-1.5-3.3-3.3v-8.8c0-1.8,1.5-3.3,3.3-3.3c1.8,0,3.3,1.5,3.3,3.3v8.8    C218.9,405,217.4,406.5,215.6,406.5z"/><g><circle cx="227.9" cy="32.4" r="12.3"/><circle cx="396.3" cy="229.2" r="12.3"/><circle cx="115.7" cy="229.2" r="12.3"/><path d="M363.7,86.4c-1.8,0-3.3-1.5-3.3-3.3v-8.9c0-1.8,1.5-3.3,3.3-3.3c1.8,0,3.3,1.5,3.3,3.3v8.9     C367.1,85,365.6,86.4,363.7,86.4z"/><path d="M377.8,92.2c-0.9,0-1.7-0.3-2.3-1c-1.3-1.3-1.3-3.4,0-4.7l6.3-6.3c1.3-1.3,3.4-1.3,4.7,0s1.3,3.4,0,4.7l-6.3,6.3     C379.5,91.9,378.6,92.2,377.8,92.2z"/><path d="M392.5,106.3h-8.7c-1.8,0-3.3-1.5-3.3-3.3c0-1.8,1.5-3.3,3.3-3.3h8.7c1.8,0,3.3,1.5,3.3,3.3     C395.8,104.8,394.3,106.3,392.5,106.3z"/><path d="M384.1,126.6c-0.8,0-1.7-0.3-2.3-1l-6.3-6.3c-1.3-1.3-1.3-3.4,0-4.7c1.3-1.3,3.4-1.3,4.7,0l6.3,6.3     c1.3,1.3,1.3,3.4,0,4.7C385.7,126.2,384.9,126.6,384.1,126.6z"/><path d="M363.7,135c-1.8,0-3.3-1.5-3.3-3.3v-8.7c0-1.8,1.5-3.3,3.3-3.3c1.8,0,3.3,1.5,3.3,3.3v8.7     C367.1,133.5,365.6,135,363.7,135z"/><path d="M343.4,126.6c-0.9,0-1.7-0.3-2.3-1c-1.3-1.3-1.3-3.4,0-4.7l6.3-6.3c1.3-1.3,3.4-1.3,4.7,0c1.3,1.3,1.3,3.4,0,4.7     l-6.3,6.3C345.1,126.2,344.3,126.6,343.4,126.6z"/><path d="M343.8,106.3H335c-1.8,0-3.3-1.5-3.3-3.3c0-1.8,1.5-3.3,3.3-3.3h8.7c1.8,0,3.3,1.5,3.3,3.3     C347.1,104.8,345.6,106.3,343.8,106.3z"/><path d="M349.7,92.2c-0.9,0-1.7-0.3-2.3-1l-6.3-6.3c-1.3-1.3-1.3-3.4,0-4.7c1.3-1.3,3.4-1.3,4.7,0l6.3,6.3c1.3,1.3,1.3,3.4,0,4.7     C351.4,91.9,350.6,92.2,349.7,92.2z"/><path d="M147.2,103.1c-1.8,0-3.3-1.5-3.3-3.3v-8.2c0-1.8,1.5-3.3,3.3-3.3c1.8,0,3.3,1.5,3.3,3.3v8.2     C150.5,101.6,149,103.1,147.2,103.1z"/><path d="M147.2,139.8c-1.8,0-3.3-1.5-3.3-3.3v-8.2c0-1.8,1.5-3.3,3.3-3.3c1.8,0,3.3,1.5,3.3,3.3v8.2     C150.5,138.3,149,139.8,147.2,139.8z"/><path d="M169.7,117.3h-8.2c-1.8,0-3.3-1.5-3.3-3.3c0-1.8,1.5-3.3,3.3-3.3h8.2c1.8,0,3.3,1.5,3.3,3.3     C173,115.8,171.5,117.3,169.7,117.3z"/><path d="M133,117.3h-8.2c-1.8,0-3.3-1.5-3.3-3.3c0-1.8,1.5-3.3,3.3-3.3h8.2c1.8,0,3.3,1.5,3.3,3.3     C136.3,115.8,134.8,117.3,133,117.3z"/></g><path class="st0" d="M299.8,207c0,19.3-12.5,35.8-29.9,41.5c-2.2,0.4-3-0.9-3-2.1c0-1.5,0-6.2,0-12c0-4.1-1.4-6.8-3-8.1    c9.8-1.1,20-4.8,20-21.6c0-4.8-1.7-8.7-4.5-11.8c0.5-1.1,2-5.6-0.4-11.6c0,0-3.7-1.2-12,4.5c-3.5-1-7.3-1.5-11-1.5    c-3.7,0-7.5,0.5-11,1.5c-8.4-5.7-12.1-4.5-12.1-4.5c-2.4,6-0.9,10.5-0.4,11.6c-2.8,3.1-4.5,7-4.5,11.8c0,16.8,10.2,20.5,19.9,21.6    c-1.3,1.1-2.4,3-2.8,5.9c-2.5,1.1-8.8,3-12.8-3.6c0,0-2.3-4.2-6.7-4.5c0,0-3.3,0-1.4,1.8c0.1,0.1,0.3,0.3,0.5,0.5    c0.2,0.2,0.4,0.3,0.6,0.5c0,0,0.3,0.1,0.7,0.4c0.3,0.2,0.7,0.5,1.1,1c0.3,0.3,0.6,0.6,0.9,1c0.3,0.4,0.6,0.9,0.9,1.4v0    c0.3,0.5,0.5,1,0.8,1.5c0.1,0.3,0.3,0.5,0.4,0.8l0,0c0,0.1,0.1,0.2,0.1,0.3c0,0,2.6,7.8,14.8,5.2c0,3.7,0.1,7.1,0.1,8.2    c0,1.2-0.8,2.5-3,2.1c-17.4-5.8-29.9-22.2-29.9-41.5c0-24.2,19.6-43.8,43.8-43.8S299.8,182.8,299.8,207z"/><path d="M225.1,225.4c-0.3-0.1-0.7-0.1-0.8,0.1c0,0.1,0,0.2,0,0.3c0,0.2,0.2,0.3,0.4,0.4c0,0,0.1,0,0.1,0c0.3,0.1,0.5,0,0.6-0.2    C225.6,225.8,225.4,225.6,225.1,225.4z"/><path d="M227.1,227.1c-0.3-0.3-0.7-0.4-0.9-0.2c-0.1,0-0.1,0.1-0.1,0.2c-0.1,0.2,0,0.5,0.2,0.7c0.3,0.3,0.6,0.4,0.8,0.2    c0,0,0,0,0,0C227.5,227.8,227.4,227.5,227.1,227.1z"/><path d="M229,229.5c-0.3-0.3-0.6-0.5-0.9-0.4c0,0-0.1,0-0.1,0.1c-0.3,0.2-0.3,0.7,0,1c0.3,0.4,0.7,0.6,1,0.4c0,0,0.1,0,0.1-0.1v0    C229.3,230.3,229.2,229.9,229,229.5z"/><path d="M231.1,231.9c-0.4-0.4-0.9-0.4-1.1-0.2c-0.1,0.1-0.1,0.2-0.1,0.3c0,0.3,0.1,0.6,0.4,0.8l0,0c0.4,0.4,0.9,0.4,1.1,0.2    C231.6,232.8,231.5,232.2,231.1,231.9z"/><path d="M233.9,233.5c-0.5-0.2-1,0-1.1,0.3c-0.1,0.3,0.2,0.8,0.7,0.9c0.5,0.1,1,0,1.1-0.4C234.7,234.1,234.4,233.7,233.9,233.5z"/><path d="M237.3,234c-0.5,0-0.9,0.3-0.9,0.7c0,0.4,0.4,0.7,0.9,0.6c0.5,0,0.9-0.3,0.9-0.7C238.2,234.3,237.8,234,237.3,234z"/><path d="M240.5,233.6c-0.5,0.1-0.9,0.5-0.8,0.8c0.1,0.3,0.5,0.6,1,0.5c0.5-0.1,0.9-0.5,0.8-0.8C241.5,233.8,241,233.5,240.5,233.6    z"/></g></g><g id="Dribbble"/><g id="Deviant_Art"/><g id="Behance"/></svg>